<?xml version="1.0" standalone="no"?><!-- Generator: Gravit.io --><svg xmlns="http://www.w3.org/2000/svg" xmlns:xlink="http://www.w3.org/1999/xlink" style="isolation:isolate" viewBox="785.899 406.294 321.101 285.401" width="321.101" height="285.401"><defs><clipPath id="_clipPath_RZzoyuvopbMwat0VVvBmK7h9e7VbqLhQ"><rect x="785.899" y="406.294" width="321.101" height="285.401"/></clipPath></defs><g clip-path="url(#_clipPath_RZzoyuvopbMwat0VVvBmK7h9e7VbqLhQ)"><g><g><g><path d=" M 844.662 448.134 L 816.253 474.371 C 815.463 475.101 815.359 476.399 816.403 477.768 L 859.997 534.95 C 860.28 535.322 861.459 535.435 862.25 534.705 L 901.477 498.476 C 902.268 497.746 902.371 496.448 902.088 496.076 L 867.572 450.802 C 867.001 450.052 866.726 449.895 866.43 449.865 L 845.482 447.848 C 845.186 447.821 844.89 447.923 844.662 448.134 Z " fill="rgb(233,233,224)"/><path d=" M 845.29 447.831 L 855.023 460.597 L 866.621 449.885 L 845.29 447.831 Z " fill="rgb(217,215,202)"/><path d=" M 834.37 484.134 C 832.299 481.417 832.622 477.36 835.09 475.08 C 837.558 472.801 841.244 473.156 843.315 475.872 C 845.386 478.589 845.064 482.646 842.596 484.926 C 840.127 487.205 836.442 486.85 834.37 484.134 Z " fill="rgb(243,213,91)"/><path d=" M 846.855 517.712 L 857.622 507.767 L 888.946 478.838 L 879.911 466.986 L 862.319 465.792 L 861.487 487.674 L 851.616 486.724 L 846.855 517.712 Z " fill="rgb(38,185,154)"/><path d=" M 901.477 498.476 L 862.25 534.705 C 861.459 535.435 860.28 535.322 859.616 534.451 L 846.855 517.712 L 888.946 478.838 L 901.707 495.577 C 902.371 496.448 902.268 497.746 901.477 498.476 Z " fill="rgb(20,160,133)"/><g><path d=" M 864.463 508.15 L 870.909 516.606 C 871.299 517.116 871.541 517.625 871.637 518.129 C 871.733 518.634 871.719 519.124 871.595 519.599 C 871.47 520.074 871.254 520.524 870.948 520.949 C 870.641 521.376 870.292 521.769 869.9 522.132 C 869.703 522.314 869.455 522.503 869.159 522.702 C 868.862 522.901 868.539 523.084 868.186 523.25 C 867.834 523.415 867.483 523.559 867.135 523.681 C 866.786 523.803 866.467 523.872 866.176 523.889 L 865.949 522.066 C 866.09 522.052 866.272 522.006 866.494 521.927 C 866.714 521.848 866.948 521.75 867.193 521.632 C 867.438 521.515 867.685 521.381 867.938 521.232 C 868.19 521.084 868.408 520.922 868.595 520.749 C 869.068 520.313 869.368 519.863 869.496 519.404 C 869.624 518.944 869.512 518.464 869.164 517.966 L 862.83 509.658 L 864.463 508.15 Z " fill="rgb(255,255,255)"/><path d=" M 876.91 515.532 L 875.304 517.016 L 867.027 506.159 L 869.864 503.539 C 870.283 503.152 870.753 502.842 871.276 502.611 C 871.799 502.38 872.335 502.261 872.885 502.254 C 873.436 502.247 873.971 502.36 874.489 502.592 C 875.008 502.824 875.466 503.199 875.864 503.721 C 876.283 504.271 876.578 504.847 876.749 505.451 C 876.921 506.055 876.97 506.649 876.899 507.233 C 876.827 507.817 876.641 508.392 876.34 508.954 C 876.04 509.516 875.629 510.036 875.112 510.513 L 873.921 511.614 L 876.909 515.533 L 876.91 515.532 Z  M 869.656 506.017 L 872.935 510.318 L 874.407 508.958 C 874.603 508.777 874.769 508.562 874.905 508.309 C 875.041 508.059 875.125 507.775 875.158 507.46 C 875.191 507.145 875.143 506.793 875.013 506.403 C 874.882 506.013 874.649 505.597 874.312 505.155 C 874.177 504.979 873.999 504.795 873.78 504.606 C 873.559 504.417 873.299 504.28 873 504.197 C 872.7 504.114 872.372 504.116 872.014 504.204 C 871.654 504.293 871.27 504.526 870.86 504.905 L 869.656 506.017 Z " fill="rgb(255,255,255)"/><path d=" M 886.333 497.29 L 889.533 501.488 C 889.545 501.963 889.492 502.406 889.377 502.824 C 889.261 503.241 889.108 503.637 888.917 504.014 C 888.725 504.391 888.499 504.743 888.237 505.068 C 887.977 505.396 887.699 505.693 887.405 505.965 C 886.815 506.509 886.184 506.892 885.509 507.113 C 884.834 507.335 884.136 507.386 883.414 507.266 C 882.691 507.145 881.96 506.835 881.219 506.332 C 880.478 505.828 879.759 505.119 879.063 504.206 C 878.367 503.294 877.859 502.393 877.541 501.508 C 877.223 500.622 877.073 499.778 877.093 498.974 C 877.11 498.17 877.278 497.419 877.594 496.715 C 877.909 496.013 878.358 495.394 878.938 494.859 C 879.473 494.365 880.047 494.002 880.661 493.769 C 881.275 493.538 881.913 493.45 882.578 493.504 L 882.299 495.62 C 881.867 495.533 881.464 495.554 881.091 495.681 C 880.717 495.81 880.383 496.009 880.088 496.281 C 879.759 496.585 879.495 496.944 879.302 497.358 C 879.107 497.773 879.017 498.252 879.032 498.799 C 879.047 499.347 879.184 499.941 879.449 500.586 C 879.713 501.23 880.126 501.934 880.694 502.698 C 881.265 503.427 881.82 504.001 882.361 504.421 C 882.902 504.842 883.417 505.119 883.907 505.252 C 884.397 505.385 884.85 505.401 885.267 505.301 C 885.684 505.2 886.053 505.001 886.375 504.704 C 886.473 504.613 886.598 504.485 886.752 504.317 C 886.905 504.15 887.052 503.973 887.191 503.786 C 887.33 503.6 887.453 503.407 887.559 503.208 C 887.666 503.008 887.714 502.822 887.704 502.648 L 885.66 499.968 L 883.987 501.513 L 883.066 500.305 L 886.332 497.289 L 886.333 497.29 Z " fill="rgb(255,255,255)"/></g></g></g><g><path d=" M 1051.071 434.724 C 1049.187 432.984 1046.352 433.257 1044.771 435.331 L 1004.524 488.123 C 1002.943 490.197 1003.191 493.318 1005.075 495.058 L 1039.335 526.7 C 1041.22 528.44 1044.055 528.167 1045.636 526.093 L 1077.259 484.613 L 1075.054 456.873 L 1051.071 434.724 Z " fill="rgb(226,229,231)"/><path d=" M 1066.981 475.121 L 1077.259 484.613 L 1075.054 456.873 L 1066.429 468.186 C 1064.848 470.26 1065.096 473.381 1066.981 475.121 Z " fill="rgb(176,183,189)"/><path d=" M 1068.634 495.926 L 1066.981 475.121 L 1077.259 484.613 L 1068.634 495.926 Z " fill="rgb(202,209,216)"/><path d=" M 1044.534 512.223 C 1043.743 513.26 1042.325 513.396 1041.383 512.526 L 1003.697 477.721 C 1002.755 476.851 1002.631 475.29 1003.421 474.253 L 1017.795 455.399 C 1018.586 454.362 1020.003 454.225 1020.945 455.096 L 1058.632 489.901 C 1059.574 490.771 1059.698 492.332 1058.907 493.369 L 1044.534 512.223 Z " fill="rgb(247,184,78)"/><g><path d=" M 1019.465 468.72 C 1022.01 466.087 1026.422 469.266 1027.095 472.611 C 1027.396 474.3 1025.409 474.701 1025.092 473.278 C 1024.619 471.632 1022.571 469.175 1021.089 470.476 C 1018.833 472.608 1025.87 476.695 1022.72 480.616 C 1019.705 484.357 1014.594 479.792 1014.014 476.325 C 1013.871 475.502 1014.389 474.853 1014.948 474.672 C 1015.602 474.611 1016.103 474.842 1016.248 475.693 C 1016.726 477.574 1019.135 480.878 1020.973 478.922 C 1022.495 476.531 1015.774 472.611 1019.465 468.72 Z " fill="rgb(255,255,255)"/><path d=" M 1025.775 487.319 L 1028.515 475.642 C 1028.889 473.957 1031.252 474.472 1030.9 476.277 L 1029.81 480.433 L 1028.35 485.867 L 1032.931 483.316 L 1036.461 481.412 C 1037.881 480.774 1038.919 482.963 1037.5 483.786 L 1027.582 488.988 C 1026.543 489.647 1025.4 488.975 1025.775 487.319 Z " fill="rgb(255,255,255)"/><path d=" M 1040.772 500.347 C 1039.122 500.337 1037.641 499.615 1036.437 498.502 C 1033.559 495.844 1032.899 492.15 1035.634 488.562 C 1037.955 485.517 1041.911 485.138 1044.799 487.805 C 1045.882 488.805 1046.762 490.312 1046.91 492.017 C 1047.056 493.69 1044.828 493.921 1044.615 492.365 C 1044.524 491.352 1044.12 490.289 1043.408 489.631 C 1041.751 488.101 1039.035 488.083 1037.415 490.208 C 1035.714 492.44 1036.021 495.034 1037.817 496.692 C 1038.651 497.463 1039.57 497.849 1040.388 497.91 L 1041.8 496.059 L 1039.746 494.162 C 1038.526 493.036 1040.054 491.307 1041.15 492.32 L 1043.889 494.85 C 1044.396 495.318 1044.537 496.171 1044.18 496.639 L 1041.733 499.849 C 1041.529 500.121 1041.225 500.274 1040.772 500.347 Z " fill="rgb(255,255,255)"/></g><path d=" M 1041.383 512.526 L 1008.836 482.467 L 1007.398 484.352 L 1039.946 514.412 C 1040.888 515.282 1042.306 515.145 1043.096 514.108 L 1044.534 512.223 C 1043.743 513.26 1042.325 513.396 1041.383 512.526 Z " fill="rgb(202,209,216)"/></g><g><path d=" M 914.974 415.213 C 912.598 415.913 911.175 418.626 911.811 421.241 L 928.017 487.809 C 928.653 490.424 931.118 491.99 933.494 491.289 L 976.694 478.549 C 979.07 477.848 980.493 475.135 979.857 472.52 L 967.124 420.217 L 945.214 406.294 L 914.974 415.213 Z " fill="rgb(226,229,231)"/><path d=" M 954.164 424.039 L 967.124 420.217 L 945.214 406.294 L 948.686 420.559 C 949.323 423.174 951.788 424.74 954.164 424.039 Z " fill="rgb(176,183,189)"/><path d=" M 970.596 434.482 L 954.164 424.039 L 967.124 420.217 L 970.596 434.482 Z " fill="rgb(202,209,216)"/><path d=" M 968.902 465.558 C 969.22 466.866 968.508 468.223 967.32 468.573 L 919.801 482.587 C 918.613 482.938 917.38 482.155 917.062 480.847 L 911.274 457.073 C 910.956 455.765 911.667 454.409 912.855 454.059 L 960.375 440.044 C 961.563 439.694 962.796 440.477 963.114 441.785 L 968.902 465.558 Z " fill="rgb(160,102,170)"/><g><path d=" M 938.207 467.948 C 937.252 469.429 935.865 470.351 934.347 470.798 C 930.718 471.869 927.59 470.345 926.489 465.821 C 925.554 461.981 927.54 458.198 931.182 457.124 C 932.547 456.721 934.173 456.792 935.527 457.636 C 936.859 458.464 935.75 460.605 934.471 459.905 C 933.664 459.406 932.641 459.16 931.742 459.425 C 929.654 460.041 928.083 462.479 928.735 465.158 C 929.42 467.973 931.528 469.184 933.791 468.516 C 934.843 468.206 935.658 467.599 936.173 466.896 L 935.604 464.562 L 933.015 465.326 C 931.477 465.779 931.067 463.411 932.449 463.003 L 935.903 461.984 C 936.542 461.796 937.258 462.158 937.401 462.748 L 938.387 466.796 C 938.47 467.136 938.412 467.497 938.207 467.948 Z " fill="rgb(255,255,255)"/><path d=" M 939.027 456.397 C 938.647 454.838 940.914 454.108 941.308 455.725 L 943.949 466.575 C 944.334 468.154 942.062 468.864 941.669 467.248 L 939.027 456.397 L 939.027 456.397 Z " fill="rgb(255,255,255)"/><path d=" M 946.934 455.49 L 947.67 458.511 L 952.072 457.213 C 952.694 457.03 953.483 457.531 953.645 458.197 C 953.798 458.824 953.3 459.519 952.678 459.702 L 948.276 461.001 L 949.248 464.992 C 949.41 465.658 949.103 466.299 948.498 466.477 C 947.738 466.701 947.148 466.325 946.986 465.659 L 944.358 454.863 C 944.191 454.179 944.537 453.547 945.296 453.323 L 951.359 451.535 C 952.119 451.311 952.689 451.673 952.855 452.357 C 953.004 452.966 952.72 453.781 951.96 454.005 L 946.934 455.487 L 946.934 455.49 Z " fill="rgb(255,255,255)"/></g><path d=" M 967.32 468.573 L 926.281 480.676 L 926.859 483.054 L 967.899 470.95 C 969.087 470.6 969.799 469.243 969.48 467.936 L 968.902 465.558 C 969.22 466.866 968.508 468.223 967.32 468.573 Z " fill="rgb(202,209,216)"/></g><g><circle vector-effect="non-scaling-stroke" cx="935.9171709900743" cy="560.6520675908449" r="24.36688940232125" fill="rgb(44,62,80)"/><circle vector-effect="non-scaling-stroke" cx="965.1574382728595" cy="546.0319339494517" r="29.240267282785453" fill="rgb(44,62,80)"/><circle vector-effect="non-scaling-stroke" cx="998.0527389659937" cy="564.3071010011931" r="20.71185599197304" fill="rgb(44,62,80)"/><rect x="935.917" y="560.652" width="60.917" height="24.367" transform="matrix(1,0,0,1,0,0)" fill="rgb(44,62,80)"/><rect x="960.284" y="548.469" width="9.747" height="24.367" transform="matrix(1,0,0,1,0,0)" fill="rgb(235,235,235)"/><path d=" M 965.157 536.285 L 950.537 553.342 L 979.778 553.342 L 965.157 536.285 Z " fill="rgb(235,235,235)"/></g></g><g transform="matrix(1,0,0,1,785.899,598.117)"><text transform="matrix(1,0,0,1,27.171,36.8)" style="font-family:'ABeeZee';font-weight:400;font-size:40px;font-style:normal;fill:#2c3e50;stroke:none;">DRAG &amp; DROP</text><text transform="matrix(1,0,0,1,57.666,64.888)" style="font-family:'ABeeZee';font-weight:400;font-size:14px;font-style:normal;fill:#2c3e50;stroke:none;">your files to assets, or browse.</text></g></g></svg>