<?xml version="1.0" standalone="no"?><!-- Generator: Gravit.io --><svg xmlns="http://www.w3.org/2000/svg" xmlns:xlink="http://www.w3.org/1999/xlink" style="isolation:isolate" viewBox="0 0 1080 1080" width="1080" height="1080"><defs><clipPath id="_clipPath_IAMkPmOzYWcHZnOR9r8JY0XG5bLlLxXg"><rect width="1080" height="1080"/></clipPath></defs><g clip-path="url(#_clipPath_IAMkPmOzYWcHZnOR9r8JY0XG5bLlLxXg)"><g><g><g><path d=" M 199.501 224.975 L 105.137 312.125 C 102.51 314.552 102.167 318.863 105.635 323.411 L 250.436 513.348 C 251.377 514.583 255.294 514.96 257.921 512.533 L 388.219 392.195 C 390.847 389.769 391.189 385.458 390.248 384.223 L 275.6 233.839 C 273.701 231.348 272.788 230.825 271.804 230.727 L 202.224 224.027 C 201.24 223.936 200.258 224.276 199.501 224.975 Z " fill="rgb(233,233,224)"/><path d=" M 201.587 223.969 L 233.914 266.373 L 272.441 230.792 L 201.587 223.969 Z " fill="rgb(217,215,202)"/><path d=" M 165.315 344.554 C 158.435 335.53 159.506 322.055 167.705 314.483 C 175.905 306.91 188.147 308.089 195.027 317.114 C 201.907 326.138 200.836 339.613 192.636 347.185 C 184.437 354.758 172.195 353.579 165.315 344.554 Z " fill="rgb(243,213,91)"/><path d=" M 206.783 456.089 L 242.549 423.057 L 346.595 326.964 L 316.584 287.598 L 258.151 283.629 L 255.386 356.315 L 222.599 353.158 L 206.783 456.089 Z " fill="rgb(38,185,154)"/><path d=" M 388.219 392.195 L 257.921 512.533 C 255.294 514.96 251.377 514.583 249.173 511.691 L 206.783 456.089 L 346.595 326.964 L 388.985 382.566 C 391.189 385.458 390.847 389.769 388.219 392.195 Z " fill="rgb(20,160,133)"/><g><path d=" M 265.273 424.33 L 286.684 452.415 C 287.977 454.112 288.783 455.801 289.102 457.476 C 289.421 459.152 289.372 460.782 288.961 462.357 C 288.546 463.935 287.831 465.432 286.812 466.842 C 285.792 468.259 284.634 469.567 283.33 470.771 C 282.677 471.375 281.855 472.005 280.872 472.663 C 279.886 473.325 278.81 473.934 277.639 474.484 C 276.469 475.035 275.304 475.513 274.148 475.916 C 272.989 476.321 271.928 476.551 270.963 476.607 L 270.209 470.552 C 270.677 470.505 271.282 470.354 272.017 470.09 C 272.749 469.829 273.525 469.502 274.34 469.11 C 275.154 468.724 275.976 468.276 276.813 467.783 C 277.651 467.29 278.377 466.753 278.998 466.179 C 280.569 464.729 281.564 463.236 281.99 461.709 C 282.416 460.181 282.042 458.587 280.887 456.934 L 259.849 429.338 L 265.273 424.33 Z " fill="rgb(255,255,255)"/><path d=" M 306.617 448.85 L 301.281 453.778 L 273.788 417.715 L 283.211 409.013 C 284.603 407.727 286.167 406.698 287.903 405.93 C 289.639 405.162 291.421 404.766 293.248 404.743 C 295.076 404.72 296.854 405.097 298.576 405.866 C 300.298 406.636 301.82 407.883 303.141 409.615 C 304.535 411.444 305.512 413.359 306.082 415.363 C 306.652 417.368 306.817 419.344 306.579 421.284 C 306.34 423.224 305.721 425.131 304.723 426.998 C 303.725 428.865 302.362 430.594 300.645 432.179 L 296.688 435.834 L 306.614 448.853 L 306.617 448.85 Z  M 282.521 417.243 L 293.412 431.529 L 298.302 427.013 C 298.952 426.412 299.503 425.696 299.956 424.857 C 300.407 424.025 300.687 423.084 300.797 422.037 C 300.908 420.99 300.748 419.82 300.314 418.525 C 299.881 417.23 299.105 415.849 297.987 414.382 C 297.539 413.795 296.946 413.184 296.219 412.557 C 295.485 411.929 294.623 411.475 293.63 411.197 C 292.634 410.922 291.543 410.929 290.353 411.223 C 289.158 411.515 287.882 412.291 286.52 413.549 L 282.521 417.243 Z " fill="rgb(255,255,255)"/><path d=" M 337.915 388.257 L 348.545 402.199 C 348.585 403.778 348.411 405.25 348.026 406.636 C 347.642 408.021 347.134 409.339 346.498 410.591 C 345.862 411.842 345.112 413.01 344.24 414.09 C 343.376 415.181 342.454 416.167 341.476 417.071 C 339.518 418.878 337.423 420.149 335.18 420.885 C 332.937 421.62 330.619 421.792 328.22 421.391 C 325.82 420.991 323.389 419.961 320.928 418.289 C 318.467 416.616 316.079 414.26 313.768 411.229 C 311.457 408.198 309.77 405.207 308.714 402.267 C 307.655 399.323 307.158 396.519 307.223 393.85 C 307.281 391.179 307.838 388.683 308.889 386.347 C 309.936 384.014 311.428 381.959 313.353 380.181 C 315.131 378.539 317.038 377.333 319.075 376.561 C 321.116 375.792 323.236 375.499 325.445 375.679 L 324.516 382.708 C 323.081 382.418 321.744 382.488 320.505 382.912 C 319.263 383.34 318.153 383.999 317.174 384.903 C 316.078 385.915 315.203 387.107 314.561 388.481 C 313.915 389.858 313.617 391.451 313.665 393.266 C 313.713 395.088 314.171 397.062 315.049 399.203 C 315.927 401.343 317.299 403.68 319.185 406.22 C 321.081 408.64 322.927 410.546 324.723 411.942 C 326.519 413.339 328.229 414.26 329.857 414.702 C 331.485 415.143 332.99 415.199 334.375 414.865 C 335.761 414.531 336.985 413.869 338.055 412.881 C 338.38 412.581 338.797 412.154 339.308 411.596 C 339.816 411.041 340.305 410.455 340.768 409.833 C 341.227 409.214 341.636 408.574 341.99 407.912 C 342.344 407.249 342.504 406.631 342.469 406.054 L 335.681 397.15 L 330.124 402.282 L 327.066 398.271 L 337.913 388.253 L 337.915 388.257 Z " fill="rgb(255,255,255)"/></g></g></g><g><path d=" M 885.118 180.435 C 878.859 174.654 869.441 175.561 864.189 182.45 L 730.503 357.807 C 725.251 364.696 726.075 375.062 732.334 380.843 L 846.135 485.944 C 852.394 491.725 861.812 490.818 867.064 483.929 L 972.103 346.148 L 964.779 254.006 L 885.118 180.435 Z " fill="rgb(226,229,231)"/><path d=" M 937.963 314.618 L 972.103 346.148 L 964.779 254.006 L 936.132 291.582 C 930.88 298.471 931.704 308.837 937.963 314.618 Z " fill="rgb(176,183,189)"/><path d=" M 943.456 383.725 L 937.963 314.618 L 972.103 346.148 L 943.456 383.725 Z " fill="rgb(202,209,216)"/><path d=" M 863.402 437.857 C 860.776 441.302 856.067 441.755 852.937 438.865 L 727.757 323.253 C 724.627 320.363 724.215 315.18 726.841 311.736 L 774.586 249.108 C 777.212 245.664 781.921 245.21 785.051 248.1 L 910.231 363.712 C 913.361 366.602 913.773 371.785 911.147 375.23 L 863.402 437.857 Z " fill="rgb(247,184,78)"/><g><path d=" M 780.133 293.356 C 788.585 284.609 803.244 295.169 805.477 306.282 C 806.476 311.89 799.875 313.222 798.825 308.495 C 797.252 303.029 790.45 294.869 785.527 299.191 C 778.033 306.272 801.409 319.846 790.945 332.872 C 780.93 345.297 763.955 330.132 762.027 318.619 C 761.552 315.885 763.273 313.729 765.129 313.126 C 767.3 312.923 768.964 313.691 769.447 316.517 C 771.035 322.765 779.036 333.74 785.141 327.245 C 790.199 319.301 767.874 306.281 780.133 293.356 Z " fill="rgb(255,255,255)"/><path d=" M 801.093 355.135 L 810.194 316.348 C 811.436 310.75 819.286 312.461 818.117 318.458 L 814.496 332.263 L 809.646 350.314 L 824.863 341.838 L 836.587 335.516 C 841.306 333.396 844.752 340.666 840.04 343.4 L 807.096 360.68 C 803.643 362.869 799.848 360.635 801.093 355.135 Z " fill="rgb(255,255,255)"/><path d=" M 850.908 398.411 C 845.427 398.375 840.507 395.977 836.507 392.282 C 826.948 383.454 824.755 371.183 833.841 359.265 C 841.551 349.15 854.69 347.891 864.283 356.751 C 867.879 360.072 870.803 365.077 871.295 370.74 C 871.779 376.299 864.38 377.064 863.674 371.898 C 863.369 368.532 862.029 365 859.662 362.813 C 854.159 357.732 845.139 357.672 839.758 364.73 C 834.105 372.145 835.128 380.763 841.091 386.27 C 843.862 388.829 846.916 390.114 849.632 390.316 L 854.32 384.166 L 847.498 377.865 C 843.447 374.124 848.521 368.384 852.163 371.747 L 861.261 380.15 C 862.945 381.705 863.413 384.538 862.229 386.092 L 854.098 396.757 C 853.421 397.658 852.412 398.167 850.908 398.411 Z " fill="rgb(255,255,255)"/></g><path d=" M 852.937 438.865 L 744.827 339.019 L 740.052 345.281 L 848.163 445.128 C 851.292 448.018 856.001 447.565 858.627 444.12 L 863.402 437.857 C 860.776 441.302 856.067 441.755 852.937 438.865 Z " fill="rgb(202,209,216)"/></g><g><path d=" M 433.051 115.623 C 425.159 117.951 420.432 126.963 422.546 135.649 L 476.375 356.761 C 478.49 365.448 486.677 370.651 494.569 368.323 L 638.064 326.004 C 645.956 323.676 650.683 314.665 648.568 305.978 L 606.274 132.247 L 533.497 86 L 433.051 115.623 Z " fill="rgb(226,229,231)"/><path d=" M 563.226 144.943 L 606.274 132.247 L 533.497 86 L 545.031 133.381 C 547.146 142.068 555.334 147.271 563.226 144.943 Z " fill="rgb(176,183,189)"/><path d=" M 617.809 179.628 L 563.226 144.943 L 606.274 132.247 L 617.809 179.628 Z " fill="rgb(202,209,216)"/><path d=" M 612.179 282.855 C 613.237 287.198 610.873 291.704 606.927 292.868 L 449.084 339.419 C 445.138 340.582 441.044 337.981 439.986 333.638 L 420.762 254.669 C 419.705 250.326 422.068 245.82 426.014 244.656 L 583.858 198.105 C 587.804 196.941 591.897 199.543 592.955 203.886 L 612.179 282.855 Z " fill="rgb(160,102,170)"/><g><path d=" M 510.222 290.791 C 507.052 295.712 502.445 298.772 497.401 300.26 C 485.348 303.815 474.957 298.754 471.299 283.726 C 468.194 270.973 474.793 258.404 486.889 254.837 C 491.423 253.5 496.825 253.735 501.322 256.539 C 505.744 259.289 502.062 266.401 497.812 264.074 C 495.133 262.418 491.735 261.601 488.75 262.481 C 481.812 264.527 476.594 272.626 478.76 281.525 C 481.036 290.875 488.036 294.896 495.556 292.679 C 499.05 291.648 501.757 289.631 503.466 287.299 L 501.578 279.544 L 492.976 282.081 C 487.867 283.588 486.506 275.72 491.097 274.366 L 502.57 270.983 C 504.693 270.356 507.07 271.56 507.547 273.518 L 510.821 286.966 C 511.096 288.096 510.904 289.295 510.222 290.791 Z " fill="rgb(255,255,255)"/><path d=" M 512.947 252.425 C 511.686 247.244 519.216 244.82 520.524 250.19 L 529.298 286.232 C 530.574 291.475 523.028 293.836 521.721 288.466 L 512.947 252.425 L 512.947 252.425 Z " fill="rgb(255,255,255)"/><path d=" M 539.212 249.41 L 541.656 259.447 L 556.278 255.135 C 558.344 254.525 560.964 256.19 561.502 258.401 C 562.01 260.486 560.357 262.793 558.29 263.403 L 543.668 267.715 L 546.896 280.974 C 547.435 283.185 546.415 285.314 544.406 285.906 C 541.88 286.651 539.923 285.4 539.384 283.189 L 530.654 247.33 C 530.101 245.055 531.251 242.956 533.769 242.213 L 553.908 236.273 C 556.434 235.529 558.326 236.731 558.88 239.005 C 559.372 241.027 558.431 243.733 555.906 244.478 L 539.21 249.402 L 539.212 249.41 Z " fill="rgb(255,255,255)"/></g><path d=" M 606.927 292.868 L 470.608 333.071 L 472.53 340.968 L 608.85 300.764 C 612.796 299.601 615.159 295.095 614.102 290.752 L 612.179 282.855 C 613.237 287.198 610.873 291.704 606.927 292.868 Z " fill="rgb(202,209,216)"/></g><g><circle vector-effect="non-scaling-stroke" cx="502.61719634705184" cy="598.7215897911307" r="80.93809024246593" fill="rgb(44,62,80)"/><circle vector-effect="non-scaling-stroke" cx="599.7429046380103" cy="550.1587356456496" r="97.1257082909591" fill="rgb(44,62,80)"/><circle vector-effect="non-scaling-stroke" cx="709.0093264653411" cy="610.8623033275009" r="68.79737670609609" fill="rgb(44,62,80)"/><rect x="502.617" y="598.722" width="202.345" height="80.938" transform="matrix(1,0,0,1,0,0)" fill="rgb(44,62,80)"/><rect x="583.555" y="558.253" width="32.375" height="80.938" transform="matrix(1,0,0,1,0,0)" fill="rgb(235,235,235)"/><path d=" M 599.743 517.783 L 551.18 574.44 L 648.306 574.44 L 599.743 517.783 Z " fill="rgb(235,235,235)"/></g></g><g transform="matrix(3.322,0,0,3.322,94,723.167)"><text transform="matrix(1,0,0,1,32.395,38.36)" style="font-family:'Lato';font-weight:400;font-size:30px;font-style:normal;fill:#2c3e50;stroke:none;">DRAG &amp; DROP</text><text transform="matrix(1,0,0,1,51.309,69.13)" style="font-family:'Acme';font-weight:400;font-size:14px;font-style:normal;fill:#2c3e50;stroke:none;">your files to assets, or browse.</text></g></g></svg>